<svg width="27" height="21" viewBox="0 0 27 21" fill="none" xmlns="http://www.w3.org/2000/svg">
<path d="M11.2622 19.8921C7.9589 17.3815 3.41684 17.0907 1.17397 17.2819C1.03023 17.2942 0.943167 17.1175 1.04273 17.01C2.86159 15.0454 5.04663 13.7367 5.95093 13.3132C14.4339 13.3132 18.4992 15.0966 20.7492 15.9883C18.8799 18.1284 16.5088 19.2877 15.8164 19.466C14.8367 19.8698 12.6246 19.9879 11.5781 20C11.4641 20.0013 11.3539 19.9618 11.2622 19.8921Z" fill="#617D8B" stroke="black"/>
<path d="M25.3379 15.4746C22.8455 15.9026 20.3186 15.653 19.3667 15.4746C17.982 15.0288 14.1743 14.2217 10.0204 13.5796L6.1261 13.3121C6.21264 10.1911 7.94343 3.43647 14.1743 2.36642H15.9916C15.9916 2.07651 15.9916 1.19754 17.2897 1.00645C17.8089 0.930011 18.8474 1.54149 19.107 2.36642C23.0532 3.22246 25.0783 7.00333 25.8571 8.78676C26.2725 12.2109 25.684 14.6721 25.3379 15.4746Z" fill="#E61E62"/>
<path d="M19.3667 15.4746C20.3186 15.653 22.8455 15.9026 25.3379 15.4746C25.684 14.6721 26.2725 12.2109 25.8571 8.78676C25.0783 7.00333 23.0532 3.22246 19.107 2.36642M19.3667 15.4746C17.982 15.0288 14.1743 14.2217 10.0204 13.5796M19.3667 15.4746C20.059 12.0861 20.509 4.50653 17.8089 2.36642M19.107 2.36642H17.8089M19.107 2.36642C18.8474 1.54149 17.8089 0.930011 17.2897 1.00645C15.9916 1.19754 15.9916 2.07651 15.9916 2.36642M10.0204 13.5796L6.1261 13.3121C6.21264 10.1911 7.94343 3.43647 14.1743 2.36642H15.9916M10.0204 13.5796C9.8473 11.3503 11.2146 5.57659 15.9916 2.36642M15.9916 2.36642H17.8089" stroke="black"/>
</svg>
